Gait_normal_06_analogdata.mot
version=1
nRows=54
nColumns=19
inDegrees=yes
endheader
time	1_ground_force_vx	1_ground_force_vy	1_ground_force_vz	1_ground_force_px	1_ground_force_py	1_ground_force_pz	1_ground_torque_x	1_ground_torque_y	1_ground_torque_z	2_ground_force_vx	2_ground_force_vy	2_ground_force_vz	2_ground_force_px	2_ground_force_py	2_ground_force_pz	2_ground_torque_x	2_ground_torque_y	2_ground_torque_z
0.645000	-38.366948	662.236145	33.232309	-0.137832	0.000000	-0.280257	0.131324	-2.266736	-0.113749	0.000000	0.000000	-0.000000	-0.200000	0.000000	0.302000	0.000000	0.000000	-0.000000
0.646000	-38.634202	664.335632	33.055368	-0.137602	0.000000	-0.279781	0.121953	-2.097054	-0.104343	0.000000	0.000000	-0.000000	-0.200000	0.000000	0.302000	0.000000	0.000000	-0.000000
0.647000	-39.346891	667.834900	34.913225	-0.138292	0.000000	-0.280283	0.132762	-2.253376	-0.117802	0.000000	0.000000	-0.000000	-0.200000	0.000000	0.302000	0.000000	0.000000	-0.000000
0.648000	-37.654260	666.085266	34.559347	-0.137637	0.000000	-0.278654	0.127870	-2.261955	-0.117360	0.000000	0.000000	-0.000000	-0.200000	0.000000	0.302000	0.000000	0.000000	-0.000000
0.649000	-39.614149	656.287415	37.655771	-0.136990	0.000000	-0.279397	0.119278	-1.976081	-0.113382	0.000000	0.000000	-0.000000	-0.200000	0.000000	0.302000	0.000000	0.000000	-0.000000
0.650000	-36.674318	668.534729	37.036486	-0.137695	0.000000	-0.279361	0.120349	-2.193843	-0.121538	0.000000	0.000000	-0.000000	-0.200000	0.000000	0.302000	0.000000	0.000000	-0.000000
0.651000	-39.614149	673.433655	37.478830	-0.137715	0.000000	-0.279569	0.127685	-2.170616	-0.120802	0.000000	0.000000	-0.000000	-0.200000	0.000000	0.302000	0.000000	0.000000	-0.000000
0.652000	-38.990549	673.783569	37.744238	-0.138126	0.000000	-0.279719	0.125545	-2.169506	-0.121532	0.000000	0.000000	-0.000000	-0.200000	0.000000	0.302000	0.000000	0.000000	-0.000000
0.653000	-39.168718	673.433655	38.540460	-0.137600	0.000000	-0.278683	0.127176	-2.186562	-0.125136	0.000000	0.000000	-0.000000	-0.200000	0.000000	0.302000	0.000000	0.000000	-0.000000
0.654000	-38.545118	680.082153	38.540460	-0.138281	0.000000	-0.279789	0.113762	-2.007192	-0.113748	0.000000	0.000000	-0.000000	-0.200000	0.000000	0.302000	0.000000	0.000000	-0.000000
0.655000	-37.832434	675.533203	41.283007	-0.138074	0.000000	-0.279116	0.109155	-1.949069	-0.119111	0.000000	0.000000	-0.000000	-0.200000	0.000000	0.302000	0.000000	0.000000	-0.000000
0.656000	-36.407061	679.032410	40.309847	-0.138066	0.000000	-0.278546	0.110202	-2.055388	-0.122015	0.000000	0.000000	-0.000000	-0.200000	0.000000	0.302000	0.000000	0.000000	-0.000000
0.657000	-39.257807	681.481873	40.840662	-0.138393	0.000000	-0.279486	0.119109	-2.067632	-0.123912	0.000000	0.000000	-0.000000	-0.200000	0.000000	0.302000	0.000000	0.000000	-0.000000
0.658000	-38.634204	676.582947	41.106069	-0.137450	0.000000	-0.278585	0.123261	-2.158615	-0.131148	0.000000	0.000000	-0.000000	-0.200000	0.000000	0.302000	0.000000	0.000000	-0.000000
0.659000	-39.792323	682.881531	42.698515	-0.137931	0.000000	-0.278710	0.080841	-1.387325	-0.086745	0.000000	0.000000	-0.000000	-0.200000	0.000000	0.302000	0.000000	0.000000	-0.000000
0.660000	-38.990550	679.032410	41.194540	-0.138814	0.000000	-0.278872	0.118484	-2.063434	-0.125181	0.000000	0.000000	-0.000000	-0.200000	0.000000	0.302000	0.000000	0.000000	-0.000000
0.661000	-38.188777	684.281250	42.963922	-0.138812	0.000000	-0.278449	0.106025	-1.899792	-0.119282	0.000000	0.000000	-0.000000	-0.200000	0.000000	0.302000	0.000000	0.000000	-0.000000
0.662000	-39.435977	684.981079	44.114023	-0.138748	0.000000	-0.278319	0.118376	-2.056117	-0.132418	0.000000	0.000000	-0.000000	-0.200000	0.000000	0.302000	0.000000	0.000000	-0.000000
0.663000	-39.970492	683.581421	43.848615	-0.138363	0.000000	-0.277874	0.116287	-1.988762	-0.127570	0.000000	0.000000	-0.000000	-0.200000	0.000000	0.302000	0.000000	0.000000	-0.000000
0.664000	-40.237750	686.030823	45.794939	-0.138394	0.000000	-0.278135	0.129681	-2.210987	-0.147591	0.000000	0.000000	-0.000000	-0.200000	0.000000	0.302000	0.000000	0.000000	-0.000000
0.665000	-39.435977	686.730713	44.644838	-0.138599	0.000000	-0.277987	0.108637	-1.891782	-0.122986	0.000000	0.000000	-0.000000	-0.200000	0.000000	0.302000	0.000000	0.000000	-0.000000
0.666000	-41.306781	685.330994	47.564325	-0.138642	0.000000	-0.276948	0.101650	-1.686501	-0.117049	0.000000	0.000000	-0.000000	-0.200000	0.000000	0.302000	0.000000	0.000000	-0.000000
0.667000	-39.614150	688.830261	46.502691	-0.138892	0.000000	-0.277394	0.104665	-1.819958	-0.122865	0.000000	0.000000	-0.000000	-0.200000	0.000000	0.302000	0.000000	0.000000	-0.000000
0.668000	-40.861351	689.530090	48.183607	-0.138682	0.000000	-0.277811	0.108251	-1.826725	-0.127650	0.000000	0.000000	-0.000000	-0.200000	0.000000	0.302000	0.000000	0.000000	-0.000000
0.669000	-40.059578	688.130371	48.006670	-0.138589	0.000000	-0.277550	0.119101	-2.045882	-0.142729	0.000000	0.000000	-0.000000	-0.200000	0.000000	0.302000	0.000000	0.000000	-0.000000
0.670000	-40.059578	686.030823	50.483808	-0.137423	0.000000	-0.277718	0.094451	-1.617503	-0.119029	0.000000	0.000000	-0.000000	-0.200000	0.000000	0.302000	0.000000	0.000000	-0.000000
0.671000	-40.505009	686.030823	50.041460	-0.138706	0.000000	-0.275511	0.093959	-1.591382	-0.116081	0.000000	0.000000	-0.000000	-0.200000	0.000000	0.302000	0.000000	0.000000	-0.000000
0.672000	-40.683182	696.878479	50.837686	-0.139605	0.000000	-0.276879	0.094625	-1.620876	-0.118244	0.000000	0.000000	-0.000000	-0.200000	0.000000	0.302000	0.000000	0.000000	-0.000000
0.673000	-39.792324	692.679382	50.660745	-0.138861	0.000000	-0.276536	0.097329	-1.694238	-0.123912	0.000000	0.000000	-0.000000	-0.200000	0.000000	0.302000	0.000000	0.000000	-0.000000
0.674000	-41.395867	693.029297	51.899316	-0.138659	0.000000	-0.276595	0.110685	-1.853037	-0.138770	0.000000	0.000000	-0.000000	-0.200000	0.000000	0.302000	0.000000	0.000000	-0.000000
0.675000	-39.881409	690.229919	52.164724	-0.138000	0.000000	-0.276742	0.127034	-2.198588	-0.166160	0.000000	0.000000	-0.000000	-0.200000	0.000000	0.302000	0.000000	0.000000	-0.000000
0.676000	-40.594094	688.130371	53.934106	-0.138398	0.000000	-0.277650	0.095940	-1.626326	-0.127468	0.000000	0.000000	-0.000000	-0.200000	0.000000	0.302000	0.000000	0.000000	-0.000000
0.677000	-40.237752	695.128845	53.934106	-0.139034	0.000000	-0.275907	0.087120	-1.505043	-0.116774	0.000000	0.000000	-0.000000	-0.200000	0.000000	0.302000	0.000000	0.000000	-0.000000
0.678000	-40.415925	695.128845	52.960947	-0.139540	0.000000	-0.276682	0.099514	-1.711579	-0.130403	0.000000	0.000000	-0.000000	-0.200000	0.000000	0.302000	0.000000	0.000000	-0.000000
0.679000	-40.505009	694.778931	54.111047	-0.139031	0.000000	-0.276272	0.100656	-1.726537	-0.134467	0.000000	0.000000	-0.000000	-0.200000	0.000000	0.302000	0.000000	0.000000	-0.000000
0.680000	-41.039525	694.079041	55.084207	-0.138874	0.000000	-0.276719	0.095089	-1.608187	-0.127631	0.000000	0.000000	-0.000000	-0.200000	0.000000	0.302000	0.000000	0.000000	-0.000000
0.681000	-41.663125	690.929749	56.499715	-0.137166	0.000000	-0.277410	0.094684	-1.570209	-0.128401	0.000000	0.000000	-0.000000	-0.200000	0.000000	0.302000	0.000000	0.000000	-0.000000
0.682000	-40.772267	684.981079	56.942060	-0.138294	0.000000	-0.275893	0.082031	-1.378132	-0.114563	0.000000	0.000000	-0.000000	-0.200000	0.000000	0.302000	0.000000	0.000000	-0.000000
0.683000	-41.128610	691.279663	56.853593	-0.139258	0.000000	-0.276228	0.093667	-1.574332	-0.129479	0.347568	0.000000	0.445724	-0.249510	0.000000	0.395682	0.006579	-0.095390	0.008438
0.684000	-42.019468	690.579834	57.295938	-0.138877	0.000000	-0.275736	0.095964	-1.577147	-0.130853	0.000000	0.000000	-0.000000	-0.200000	0.000000	0.302000	0.000000	0.000000	-0.000000
0.685000	-42.197641	689.180176	59.065324	-0.138435	0.000000	-0.275595	0.067133	-1.096431	-0.093968	0.000000	0.000000	-0.000000	-0.200000	0.000000	0.302000	0.000000	0.000000	-0.000000
0.686000	-41.039526	687.780457	59.861547	-0.139380	0.000000	-0.275785	0.085859	-1.438902	-0.125236	0.000000	0.000000	-0.000000	-0.200000	0.000000	0.302000	0.000000	0.000000	-0.000000
0.687000	-41.574041	681.481873	61.188585	-0.138078	0.000000	-0.277589	0.080662	-1.322205	-0.118718	0.000000	0.000000	-0.000000	-0.200000	0.000000	0.302000	0.000000	0.000000	-0.000000
0.688000	-41.039526	684.631165	62.869501	-0.138595	0.000000	-0.275563	0.069579	-1.160726	-0.106589	0.000000	0.000000	-0.000000	-0.200000	0.000000	0.302000	0.000000	0.000000	-0.000000
0.689000	-41.930384	686.730713	61.719400	-0.138965	0.000000	-0.275012	0.086385	-1.414804	-0.127154	0.703776	0.000000	0.799894	-0.206347	0.000000	0.349935	0.005850	-0.041884	0.006649
0.690000	-41.930384	687.780457	62.250215	-0.139140	0.000000	-0.275004	0.072395	-1.187487	-0.107478	0.000000	0.000000	-0.000000	-0.200000	0.000000	0.302000	0.000000	0.000000	-0.000000
0.691000	-41.574041	684.281250	63.046438	-0.138903	0.000000	-0.274924	0.085655	-1.409827	-0.129895	0.000000	0.000000	-0.000000	-0.200000	0.000000	0.302000	0.000000	0.000000	-0.000000
0.692000	-41.574042	683.231445	64.373475	-0.138447	0.000000	-0.273821	0.078549	-1.290888	-0.121626	0.000000	0.000000	-0.000000	-0.200000	0.000000	0.302000	0.000000	0.000000	-0.000000
0.693000	-41.217696	674.133484	65.965921	-0.138125	0.000000	-0.274982	0.067139	-1.098091	-0.107451	0.000000	0.000000	-0.000000	-0.200000	0.000000	0.302000	0.000000	0.000000	-0.000000
0.694000	-39.435980	680.782043	66.762148	-0.138779	0.000000	-0.274556	0.064894	-1.120268	-0.109861	0.000000	0.000000	-0.000000	-0.200000	0.000000	0.302000	0.000000	0.000000	-0.000000
0.695000	-41.663127	681.481873	67.116021	-0.138615	0.000000	-0.274232	0.073621	-1.204208	-0.118597	0.000000	0.000000	-0.000000	-0.200000	0.000000	0.302000	0.000000	0.000000	-0.000000
0.696000	-40.772269	680.082153	66.142862	-0.139408	0.000000	-0.274926	0.070793	-1.180821	-0.114843	0.000000	0.000000	-0.000000	-0.200000	0.000000	0.302000	0.000000	0.000000	-0.000000
0.697000	-41.306784	680.432068	67.646837	-0.138775	0.000000	-0.273849	0.078181	-1.287846	-0.128034	0.000000	0.000000	-0.000000	-0.200000	0.000000	0.302000	0.000000	0.000000	-0.000000
0.698000	-40.415927	683.581421	68.796938	-0.139633	0.000000	-0.274535	0.058608	-0.991284	-0.099765	0.000000	0.000000	-0.000000	-0.200000	0.000000	0.302000	0.000000	0.000000	-0.000000
